<svg width="316" height="103" viewBox="0 0 316 103" fill="none" xmlns="http://www.w3.org/2000/svg">
<path d="M6.89426 68.8888L6.18743 18.502C4.1006 19.2425 2.04743 20.7234 0.0279165 22.9449L2.95621 8.00051C4.9084 8.20246 6.15377 8.47172 6.69231 8.80831C6.96157 8.94294 8.77914 9.01026 12.145 9.01026C21.7713 9.01026 30.8255 8.50538 39.3074 7.49563L43.0435 23.5507C42.0338 21.8005 40.5865 20.3532 38.7016 19.2088C36.8167 17.9971 34.8645 17.4249 32.845 17.4922L17.2947 17.7951C17.2274 18.1317 17.1938 18.4347 17.1938 18.7039L17.3957 39.202L30.1186 39.101C31.8689 38.8317 33.4508 36.9132 34.8645 33.3454L34.5616 52.4298C33.4172 48.7273 31.3977 46.8761 28.503 46.8761L17.4967 46.9771L17.6986 69.3937L32.845 69.6966C34.8645 69.7639 36.8167 69.2254 38.7016 68.081C40.5865 66.8693 42.0338 65.3883 43.0435 63.6381L39.3074 79.6932C30.8255 78.6834 21.7713 78.1786 12.145 78.1786C8.77914 78.1786 6.96157 78.2459 6.69231 78.3805C6.15377 78.7171 4.9084 78.9864 2.95621 79.1883L0.0279165 64.2439C2.3167 66.7346 4.60548 68.2829 6.89426 68.8888ZM93.6733 2.04294C92.5289 3.38929 91.9231 4.12977 91.8558 4.26441C91.2499 5.34148 90.947 7.1927 90.947 9.81807L91.048 38.7981C91.4519 40.5483 89.466 43.2073 85.0904 46.7751C83.2728 48.2561 79.8733 50.4103 74.8919 53.2376L77.2143 78.2795L73.3772 72.4229L72.9733 71.6151L73.5792 90.9015L70.348 85.8527L70.9538 102.918L63.8855 75.4522L67.5206 77.8756L62.6738 59.902L67.7226 62.1234L65.0972 52.6317C63.0777 50.9488 60.6543 48.862 57.827 46.3712C52.7109 41.861 49.8499 38.2932 49.2441 35.6678C49.0421 30.4844 49.1431 23.8537 49.547 15.7756C49.6143 14.6986 49.3114 13.7898 48.6382 13.0493C48.5709 12.9147 47.7294 12.2415 46.1138 11.0298C45.6426 10.9625 45.508 10.8615 45.7099 10.7268L46.1138 11.0298C46.8543 11.1644 48.7392 11.1644 51.7684 11.0298L59.5436 10.7268C60.4187 10.6595 61.2938 10.6595 62.1689 10.7268C63.5826 10.8615 64.2558 11.1307 64.1884 11.5346C62.7748 12.3425 62.068 13.5878 62.068 15.2707C62.068 15.8093 62.1016 16.3815 62.1689 16.9873L61.967 41.1205C62.3709 42.2649 63.4816 43.6449 65.2992 45.2605C66.9148 46.7415 68.3621 47.7849 69.6411 48.3907C74.6899 46.7751 77.7192 45.0249 78.7289 43.14L78.325 7.29367C78.527 6.55319 78.1231 5.4088 77.1133 3.86051C75.9016 1.97563 75.2621 0.965872 75.1948 0.831235C76.8104 1.16782 80.6138 1.36977 86.605 1.43709C91.3172 1.50441 93.6733 1.70636 93.6733 2.04294ZM101.756 68.8888L101.049 18.502C98.9624 19.2425 96.9093 20.7234 94.8897 22.9449L97.818 8.00051C99.7702 8.20246 101.016 8.47172 101.554 8.80831C101.823 8.94294 103.641 9.01026 107.007 9.01026C116.633 9.01026 125.687 8.50538 134.169 7.49563L137.905 23.5507C136.896 21.8005 135.448 20.3532 133.563 19.2088C131.679 17.9971 129.726 17.4249 127.707 17.4922L112.157 17.7951C112.089 18.1317 112.056 18.4347 112.056 18.7039L112.258 39.202L124.98 39.101C126.731 38.8317 128.313 36.9132 129.726 33.3454L129.423 52.4298C128.279 48.7273 126.26 46.8761 123.365 46.8761L112.359 46.9771L112.56 69.3937L127.707 69.6966C129.726 69.7639 131.679 69.2254 133.563 68.081C135.448 66.8693 136.896 65.3883 137.905 63.6381L134.169 79.6932C125.687 78.6834 116.633 78.1786 107.007 78.1786C103.641 78.1786 101.823 78.2459 101.554 78.3805C101.016 78.7171 99.7702 78.9864 97.818 79.1883L94.8897 64.2439C97.1785 66.7346 99.4673 68.2829 101.756 68.8888ZM217.091 77.3707L207.498 64.3449C207.431 65.0854 207.397 65.2537 207.397 64.8498C206.387 65.6576 205.176 67.3068 203.762 69.7976C202.348 72.2883 201.305 73.8029 200.632 74.3415C196.323 77.7073 193.732 79.3903 192.857 79.3903C192.318 79.3903 191.914 79.222 191.645 78.8854L180.941 64.3449C180.538 64.0083 180.302 60.3395 180.235 53.3386L179.932 30.4171C179.932 29.0034 179.999 26.9166 180.134 24.1566C180.268 21.3966 180.336 19.3098 180.336 17.8961C180.336 15.4727 178.249 13.7898 174.075 12.8473L183.668 12.5444L195.785 13.5542C193.16 14.2273 191.746 15.6747 191.544 17.8961C191.611 18.6366 191.679 23.6854 191.746 33.0425L191.847 48.5927C191.981 58.0844 192.217 63.2005 192.554 63.941C193.294 65.4893 194.371 66.2634 195.785 66.2634C196.189 66.2634 196.593 66.2298 196.997 66.1625C198.545 63.4025 200.733 60.0366 203.56 56.0649L203.055 31.7298C203.122 30.6527 203.627 29.9459 204.57 29.6093L210.527 22.7429V23.3488C210.056 23.7527 209.82 24.1566 209.82 24.5605C209.82 24.7625 210.123 25.2337 210.729 25.9742C211.335 26.7147 211.638 27.2532 211.638 27.5898C211.638 38.7644 212.008 49.8044 212.749 60.7098C212.749 61.181 213.186 61.7868 214.061 62.5273C214.937 63.2005 215.408 63.6717 215.475 63.941C216.216 66.1625 216.788 67.5088 217.192 67.98C218.134 67.7781 221.163 64.2776 226.28 57.4786C226.145 55.2571 226.179 49.5688 226.381 40.4137C226.515 34.759 226.313 29.1717 225.775 23.6517C225.438 20.2859 223.721 18.2327 220.625 17.4922C222.106 17.4922 224.294 17.5595 227.188 17.6942C230.083 17.7615 232.271 17.7951 233.752 17.7951C234.761 17.7951 236.209 17.7615 238.094 17.6942C240.046 17.5595 241.527 17.4922 242.537 17.4922C240.113 18.5693 238.767 19.2425 238.498 19.5117C237.622 20.1849 237.185 21.4976 237.185 23.4498L237.488 55.9639L220.827 78.2795C220.49 78.4815 220.221 78.5825 220.019 78.5825C218.538 78.1112 217.562 77.7073 217.091 77.3707ZM261.23 73.2307C261.566 75.2503 263.148 76.8322 265.976 77.9766L244.872 77.6737C248.574 76.5293 250.425 74.5098 250.425 71.6151L249.92 17.1893C249.651 14.8332 248.406 13.1503 246.184 12.1405H263.047C261.499 13.3522 260.725 14.7659 260.725 16.3815L261.23 73.2307ZM267.301 30.2151L272.956 11.9386H315.163L279.822 70.5044L301.936 69.2927C306.715 69.0234 311.192 66.4654 315.365 61.6186L309.105 79.3903L264.877 79.9961L300.421 21.2283L279.721 21.6322C275.143 21.6995 271.003 24.5605 267.301 30.2151Z" fill="url(#paint0_linear_177_108)"/>
<defs>
<linearGradient id="paint0_linear_177_108" x1="158.964" y1="-1.60974" x2="158.964" y2="99.3659" gradientUnits="userSpaceOnUse">
<stop offset="0.2" stop-color="#FFCE23"/>
<stop offset="0.47" stop-color="white"/>
<stop offset="0.755" stop-color="#FFCE23"/>
</linearGradient>
</defs>
</svg>
