<svg width="690" height="307" viewBox="0 0 690 307" fill="none" xmlns="http://www.w3.org/2000/svg">
<path d="M270.11 68.8537L289.464 0.695129L276.842 62.9634L318.915 55.3903L297.878 126.915L310.5 62.9634L270.11 68.8537Z" fill="url(#paint0_linear_177_101)"/>
<path d="M208.639 175.839C196.648 167.894 182.541 163.749 168.158 163.946C153.776 164.142 139.786 168.67 128.017 176.939L133.801 185.171C143.915 178.065 155.936 174.174 168.295 174.006C180.655 173.837 192.778 177.399 203.082 184.226L208.639 175.839Z" fill="url(#paint1_linear_177_101)"/>
<path d="M143.049 201.805C143.049 241.307 111.026 273.329 71.5245 273.329C32.0227 273.329 0.000144958 241.307 0.000144958 201.805C0.000144958 162.303 32.0227 130.281 71.5245 130.281C111.026 130.281 143.049 162.303 143.049 201.805ZM9.64645 201.805C9.64645 235.979 37.3502 263.683 71.5245 263.683C105.699 263.683 133.403 235.979 133.403 201.805C133.403 167.631 105.699 139.927 71.5245 139.927C37.3502 139.927 9.64645 167.631 9.64645 201.805Z" fill="url(#paint2_linear_177_101)"/>
<path d="M338.268 201.805C338.268 241.307 306.246 273.329 266.744 273.329C227.242 273.329 195.22 241.307 195.22 201.805C195.22 162.303 227.242 130.281 266.744 130.281C306.246 130.281 338.268 162.303 338.268 201.805ZM204.866 201.805C204.866 235.979 232.57 263.683 266.744 263.683C300.918 263.683 328.622 235.979 328.622 201.805C328.622 167.631 300.918 139.927 266.744 139.927C232.57 139.927 204.866 167.631 204.866 201.805Z" fill="url(#paint3_linear_177_101)"/>
<path d="M378.894 194.889L378.187 144.502C376.101 145.242 374.047 146.723 372.028 148.945L374.956 134.001C376.908 134.202 378.154 134.472 378.692 134.808C378.962 134.943 380.779 135.01 384.145 135.01C393.771 135.01 402.825 134.505 411.307 133.496L415.044 149.551C414.034 147.801 412.586 146.353 410.702 145.209C408.817 143.997 406.864 143.425 404.845 143.492L389.295 143.795C389.227 144.132 389.194 144.435 389.194 144.704L389.396 165.202L402.119 165.101C403.869 164.832 405.451 162.913 406.865 159.345L406.562 178.43C405.417 174.727 403.398 172.876 400.503 172.876L389.497 172.977L389.699 195.394L404.845 195.697C406.864 195.764 408.817 195.225 410.702 194.081C412.586 192.869 414.034 191.388 415.044 189.638L411.307 205.693C402.825 204.683 393.771 204.179 384.145 204.179C380.779 204.179 378.962 204.246 378.692 204.381C378.154 204.717 376.908 204.986 374.956 205.188L372.028 190.244C374.317 192.735 376.605 194.283 378.894 194.889ZM465.673 128.043C464.529 129.389 463.923 130.13 463.856 130.264C463.25 131.341 462.947 133.193 462.947 135.818L463.048 164.798C463.452 166.548 461.466 169.207 457.09 172.775C455.273 174.256 451.873 176.41 446.892 179.238L449.214 204.28L445.377 198.423L444.973 197.615L445.579 216.901L442.348 211.853L442.954 228.918L435.886 201.452L439.521 203.876L434.674 185.902L439.723 188.123L437.097 178.632C435.078 176.949 432.654 174.862 429.827 172.371C424.711 167.861 421.85 164.293 421.244 161.668C421.042 156.484 421.143 149.854 421.547 141.776C421.614 140.699 421.311 139.79 420.638 139.049C420.571 138.915 419.729 138.241 418.114 137.03C417.643 136.962 417.508 136.861 417.71 136.727L418.114 137.03C418.854 137.164 420.739 137.164 423.768 137.03L431.544 136.727C432.419 136.66 433.294 136.66 434.169 136.727C435.583 136.861 436.256 137.131 436.188 137.535C434.775 138.342 434.068 139.588 434.068 141.271C434.068 141.809 434.102 142.381 434.169 142.987L433.967 167.121C434.371 168.265 435.482 169.645 437.299 171.261C438.915 172.741 440.362 173.785 441.641 174.391C446.69 172.775 449.719 171.025 450.729 169.14L450.325 133.294C450.527 132.553 450.123 131.409 449.113 129.861C447.902 127.976 447.262 126.966 447.195 126.831C448.81 127.168 452.614 127.37 458.605 127.437C463.317 127.504 465.673 127.706 465.673 128.043ZM473.756 194.889L473.049 144.502C470.962 145.242 468.909 146.723 466.89 148.945L469.818 134.001C471.77 134.202 473.016 134.472 473.554 134.808C473.823 134.943 475.641 135.01 479.007 135.01C488.633 135.01 497.687 134.505 506.169 133.496L509.905 149.551C508.896 147.801 507.448 146.353 505.563 145.209C503.679 143.997 501.726 143.425 499.707 143.492L484.157 143.795C484.089 144.132 484.056 144.435 484.056 144.704L484.258 165.202L496.98 165.101C498.731 164.832 500.313 162.913 501.726 159.345L501.423 178.43C500.279 174.727 498.26 172.876 495.365 172.876L484.359 172.977L484.56 195.394L499.707 195.697C501.726 195.764 503.679 195.225 505.563 194.081C507.448 192.869 508.896 191.388 509.905 189.638L506.169 205.693C497.687 204.683 488.633 204.179 479.007 204.179C475.641 204.179 473.823 204.246 473.554 204.381C473.016 204.717 471.77 204.986 469.818 205.188L466.89 190.244C469.179 192.735 471.467 194.283 473.756 194.889ZM589.091 203.371L579.498 190.345C579.431 191.085 579.397 191.254 579.397 190.85C578.387 191.658 577.176 193.307 575.762 195.798C574.348 198.288 573.305 199.803 572.632 200.341C568.323 203.707 565.732 205.39 564.857 205.39C564.318 205.39 563.914 205.222 563.645 204.885L552.941 190.345C552.538 190.008 552.302 186.34 552.235 179.339L551.932 156.417C551.932 155.003 551.999 152.917 552.134 150.157C552.268 147.397 552.336 145.31 552.336 143.896C552.336 141.473 550.249 139.79 546.075 138.847L555.668 138.544L567.785 139.554C565.16 140.227 563.746 141.675 563.544 143.896C563.611 144.637 563.679 149.685 563.746 159.042L563.847 174.593C563.981 184.084 564.217 189.201 564.554 189.941C565.294 191.489 566.371 192.263 567.785 192.263C568.189 192.263 568.593 192.23 568.997 192.162C570.545 189.402 572.733 186.037 575.56 182.065L575.055 157.73C575.122 156.653 575.627 155.946 576.57 155.609L582.527 148.743V149.349C582.056 149.753 581.82 150.157 581.82 150.561C581.82 150.762 582.123 151.234 582.729 151.974C583.335 152.715 583.638 153.253 583.638 153.59C583.638 164.764 584.008 175.804 584.749 186.71C584.749 187.181 585.186 187.787 586.061 188.527C586.937 189.201 587.408 189.672 587.475 189.941C588.216 192.162 588.788 193.509 589.192 193.98C590.134 193.778 593.163 190.278 598.28 183.479C598.145 181.257 598.179 175.569 598.381 166.414C598.515 160.759 598.313 155.172 597.775 149.652C597.438 146.286 595.721 144.233 592.625 143.492C594.106 143.492 596.294 143.56 599.188 143.694C602.083 143.761 604.271 143.795 605.752 143.795C606.761 143.795 608.209 143.761 610.094 143.694C612.046 143.56 613.527 143.492 614.537 143.492C612.113 144.569 610.767 145.242 610.498 145.512C609.622 146.185 609.185 147.498 609.185 149.45L609.488 181.964L592.827 204.28C592.49 204.481 592.221 204.582 592.019 204.582C590.538 204.111 589.562 203.707 589.091 203.371ZM633.23 199.231C633.566 201.25 635.148 202.832 637.976 203.977L616.872 203.674C620.574 202.529 622.425 200.51 622.425 197.615L621.92 143.189C621.651 140.833 620.406 139.15 618.184 138.141H635.047C633.499 139.352 632.725 140.766 632.725 142.381L633.23 199.231ZM639.301 156.215L644.956 137.939H687.163L651.822 196.504L673.936 195.293C678.715 195.023 683.192 192.465 687.365 187.619L681.105 205.39L636.877 205.996L672.421 147.228L651.721 147.632C647.143 147.7 643.003 150.561 639.301 156.215Z" fill="url(#paint4_linear_177_101)"/>
<path d="M382.812 241.034H379.702L379.202 264.637C379.128 264.785 379.091 264.933 379.091 265.081C379.091 265.748 379.98 266.84 381.757 268.358L377.203 266.692C375.426 266.026 374.482 265.23 374.371 264.304L374.648 240.812H369.983C373.167 239.035 376.351 235.962 379.535 231.593L379.424 238.646H382.312L382.812 241.034ZM400.537 261.583C398.574 263.508 396.593 264.878 394.594 265.692C394.409 265.766 393.372 266.044 391.484 266.525C394.039 264.563 395.372 262.397 395.483 260.028C395.631 259.805 395.723 257.454 395.76 252.974C395.797 248.606 395.76 245.07 395.649 242.367L394.761 240.034C394.65 239.849 394.502 239.757 394.316 239.757C393.983 239.757 392.595 241.145 390.151 243.922L390.04 258.806C389.855 259.991 390.151 260.879 390.929 261.472L383.82 261.305C384.412 260.787 384.801 260.139 384.986 259.361L385.486 228.983C385.486 228.057 385.116 227.15 384.375 226.261L391.373 225.706C390.41 226.891 390.003 227.89 390.151 228.705L390.262 241.756C391.706 239.572 392.724 238.22 393.317 237.702C393.576 237.48 394.205 237.202 395.205 236.869L400.537 240.534V261.583ZM415.875 248.643L414.487 251.531C413.043 250.679 411.396 250.253 409.544 250.253C408.434 250.253 407.749 250.401 407.489 250.697L407.878 259.805C408.174 260.435 408.804 261.009 409.766 261.527C410.507 260.564 411.007 259.361 411.266 257.917C411.303 257.769 411.396 256.825 411.544 255.085L413.987 258.195L410.599 263.027L407.767 263.082L402.158 258.195C401.862 256.788 401.714 255.177 401.714 253.363C401.714 250.772 401.973 248.05 402.491 245.199L408.711 240.312C409.156 240.164 409.526 240.183 409.822 240.368L414.32 243.311L415.875 248.643ZM411.877 248.976L409.044 242.589C408.785 242.256 408.619 242.089 408.545 242.089C408.397 242.089 408.248 242.219 408.1 242.478L407.434 248.809C409.507 248.698 410.988 248.754 411.877 248.976ZM450.764 259.805C450.949 260.731 449.931 261.768 447.71 262.916C445.858 263.878 444.34 264.434 443.156 264.582L442.156 264.415C438.417 261.527 436.436 259.676 436.214 258.861C436.14 257.121 436.306 252.826 436.713 245.977C439.268 244.126 441.915 242.719 444.655 241.756L448.598 244.477L449.043 245.199C449.857 245.977 450.338 247.643 450.486 250.198C450.561 251.494 450.653 254.696 450.764 259.805ZM445.433 261.138C445.433 251.475 445.081 245.755 444.377 243.978L442.6 245.033C441.971 245.514 441.564 246.014 441.378 246.532L441.656 261.138C441.915 261.879 442.415 262.416 443.156 262.749C444.266 262.416 445.025 261.879 445.433 261.138ZM452.157 257.251L454.934 258.473L452.602 238.979H459.488V241.978L463.709 239.757L469.374 248.032L468.152 260.583L462.709 263.804L459.544 259.361L459.599 269.58L457.489 266.359L457.267 265.915L456.878 272.968L456.323 279.521L452.157 257.251ZM463.931 258.917L463.265 242.645L459.488 244.422L459.544 258.362L462.265 260.361L463.931 258.917ZM480.977 241.034H477.867L477.367 264.637C477.293 264.785 477.256 264.933 477.256 265.081C477.256 265.748 478.145 266.84 479.922 268.358L475.368 266.692C473.591 266.026 472.647 265.23 472.536 264.304L472.813 240.812H468.148C471.332 239.035 474.517 235.962 477.701 231.593L477.59 238.646H480.478L480.977 241.034ZM481.93 265.47C482.781 264.989 483.3 264.174 483.485 263.027C483.892 260.398 484.096 257.121 484.096 253.197C484.096 250.235 483.966 246.958 483.707 243.367H488.705C488.853 246.181 488.872 249.531 488.761 253.419C488.65 257.232 488.446 260.25 488.15 262.471C487.965 263.841 488.446 264.841 489.594 265.47H481.93ZM485.54 233.648C484.466 233.722 483.799 234.185 483.54 235.036C483.503 235.592 483.448 236.165 483.374 236.758C483.929 238.461 484.651 239.794 485.54 240.756C486.984 240.608 488.242 240.016 489.316 238.979C489.316 235.61 489.112 233.925 488.705 233.925C488.557 233.925 488.316 233.962 487.983 234.037C487.65 234.111 487.409 234.148 487.261 234.148C486.595 234.148 486.021 233.981 485.54 233.648ZM506.02 247.032L500.911 250.475C501.615 249.254 501.911 248.143 501.8 247.143C501.318 246.514 500.189 245.384 498.412 243.755C498.264 243.755 498.116 243.885 497.968 244.144L497.19 250.475L497.745 261.472C498.042 262.101 498.671 262.675 499.634 263.193L501.355 261.472C502.17 260.657 502.633 259.954 502.744 259.361C502.744 259.324 502.762 259.121 502.799 258.75L503.021 256.529L505.465 259.639L500.467 264.693L497.634 264.748L492.025 259.861C491.729 258.454 491.581 256.844 491.581 255.029C491.581 252.438 491.84 249.716 492.358 246.865L498.579 241.978C498.801 241.904 499.189 241.867 499.745 241.867C500.263 241.867 500.615 241.923 500.8 242.034L505.298 244.977L506.02 247.032ZM510.042 245.533L508.376 243.311C507.784 242.534 507.487 241.701 507.487 240.812C507.487 240.479 507.58 240.201 507.765 239.979C508.135 239.498 509.95 238.294 513.208 236.369C514.429 237.258 515.725 238.239 517.095 239.312C519.058 240.868 519.946 242.126 519.761 243.089L519.539 255.751L521.594 255.862L517.595 260.361C516.669 261.027 516.003 261.361 515.596 261.361C515.226 261.361 515.096 261.138 515.207 260.694V258.695L511.653 260.916C510.024 261.212 508.506 257.991 507.099 251.253C507.728 249.994 508.876 248.994 510.542 248.254L514.207 246.588C512.949 247.958 512.338 249.031 512.375 249.809C512.301 250.327 512.264 250.846 512.264 251.364C512.264 253.845 512.8 255.807 513.874 257.251C514.467 257.325 514.874 256.992 515.096 256.251V239.979L514.263 240.423C514.078 240.534 513.578 240.849 512.763 241.367C511.393 242.219 510.709 242.978 510.709 243.644L511.208 245.477L510.042 245.533ZM528.386 264.637C528.312 264.785 528.275 264.933 528.275 265.081C528.275 265.748 529.163 266.84 530.94 268.358L526.386 266.692C524.609 266.026 523.665 265.23 523.554 264.304L523.776 233.259C525.627 232.259 526.645 231.63 526.831 231.371L528.719 228.816L528.608 235.869L528.386 264.637ZM566.092 262.471C565.981 262.545 565.889 262.582 565.815 262.582C565.778 262.582 565.741 262.564 565.704 262.527C565.704 262.49 565.685 262.471 565.648 262.471C565.574 262.471 565.5 262.508 565.426 262.582L564.982 262.916C565.167 262.619 565.259 262.453 565.259 262.416C565.148 262.379 565 262.286 564.815 262.138L561.649 257.584C561.612 257.843 561.594 257.899 561.594 257.751C561.224 258.047 560.779 258.639 560.261 259.528C559.743 260.379 559.354 260.898 559.095 261.083C557.54 262.268 556.614 262.86 556.318 262.86C556.133 262.86 556.003 262.804 555.929 262.693L551.653 257.584C551.542 257.473 551.505 256.177 551.542 253.696C551.579 252.512 551.634 250.179 551.708 246.699C551.708 246.255 551.745 245.551 551.819 244.588C551.931 243.589 551.986 242.83 551.986 242.311C551.986 241.46 551.283 240.868 549.876 240.534L553.208 240.423L558.151 240.756C557.225 241.016 556.707 241.534 556.596 242.311C556.67 242.645 556.651 244.681 556.54 248.42L556.318 255.474C556.318 256.621 556.355 257.269 556.429 257.417C556.762 258.121 557.262 258.38 557.928 258.195C558.521 257.232 559.335 256.048 560.372 254.641V249.976C560.372 248.865 560.391 247.939 560.428 247.199L560.483 246.088C560.52 245.718 560.705 245.477 561.039 245.366L563.926 242.922V243.145C563.741 243.293 563.649 243.441 563.649 243.589C563.649 243.7 563.741 243.885 563.926 244.144C564.149 244.366 564.26 244.533 564.26 244.644C564.112 248.235 564.093 252.123 564.204 256.307C564.204 256.825 564.463 257.677 564.982 258.861C565.315 258.787 566.407 257.547 568.258 255.14C568.258 254.474 568.351 252.475 568.536 249.142C568.647 247.106 568.647 245.144 568.536 243.256C568.462 242.071 567.888 241.349 566.814 241.09C567.407 241.09 568.277 241.108 569.425 241.145C570.609 241.182 571.498 241.201 572.09 241.201C572.424 241.201 572.923 241.182 573.59 241.145C574.293 241.108 574.812 241.09 575.145 241.09C574.293 241.46 573.812 241.701 573.701 241.812C573.368 242.071 573.201 242.534 573.201 243.2L572.923 253.919L566.092 262.471ZM574.943 265.47C575.794 264.989 576.313 264.174 576.498 263.027C576.905 260.398 577.109 257.121 577.109 253.197C577.109 250.235 576.979 246.958 576.72 243.367H581.718C581.866 246.181 581.885 249.531 581.774 253.419C581.663 257.232 581.459 260.25 581.163 262.471C580.978 263.841 581.459 264.841 582.607 265.47H574.943ZM578.553 233.648C577.479 233.722 576.812 234.185 576.553 235.036C576.516 235.592 576.461 236.165 576.387 236.758C576.942 238.461 577.664 239.794 578.553 240.756C579.996 240.608 581.255 240.016 582.329 238.979C582.329 235.61 582.125 233.925 581.718 233.925C581.57 233.925 581.329 233.962 580.996 234.037C580.663 234.111 580.422 234.148 580.274 234.148C579.608 234.148 579.034 233.981 578.553 233.648ZM588.093 237.924L602.31 236.813C600.274 241.701 598.589 245.292 597.256 247.587C595.775 250.142 593.887 252.604 591.591 254.974L597.589 254.085C599.404 253.826 601.088 252.771 602.643 250.92L600.144 258.028L585.205 258.25C591.795 249.624 595.405 243.904 596.034 241.09L590.425 242.311C588.685 242.2 587.075 243.163 585.594 245.199L588.093 237.924ZM606.906 245.533L605.24 243.311C604.647 242.534 604.351 241.701 604.351 240.812C604.351 240.479 604.444 240.201 604.629 239.979C604.999 239.498 606.813 238.294 610.071 236.369C611.293 237.258 612.589 238.239 613.959 239.312C615.921 240.868 616.81 242.126 616.625 243.089L616.402 255.751L618.457 255.862L614.459 260.361C613.533 261.027 612.867 261.361 612.459 261.361C612.089 261.361 611.96 261.138 612.071 260.694V258.695L608.516 260.916C606.887 261.212 605.369 257.991 603.962 251.253C604.592 249.994 605.739 248.994 607.406 248.254L611.071 246.588C609.812 247.958 609.201 249.031 609.238 249.809C609.164 250.327 609.127 250.846 609.127 251.364C609.127 253.845 609.664 255.807 610.738 257.251C611.33 257.325 611.737 256.992 611.96 256.251V239.979L611.126 240.423C610.941 240.534 610.442 240.849 609.627 241.367C608.257 242.219 607.572 242.978 607.572 243.644L608.072 245.477L606.906 245.533ZM618.751 237.702C620.64 236.406 622.787 234.796 625.194 232.87V237.869C627.119 236.202 628.378 235.369 628.97 235.369C629.155 235.369 629.285 235.425 629.359 235.536L631.969 240.09C632.265 240.423 632.413 240.756 632.413 241.09C632.413 241.46 632.228 241.701 631.858 241.812L626.749 244.811V244.588C627.526 243.848 627.971 243.163 628.082 242.534C627.934 241.978 627.674 241.293 627.304 240.479C626.823 239.442 626.453 238.961 626.193 239.035C625.971 239.072 625.694 239.312 625.36 239.757C625.212 245.273 625.305 250.716 625.638 256.085C625.712 257.269 626.286 257.991 627.36 258.25C626.841 258.25 626.045 258.232 624.972 258.195C623.935 258.158 623.157 258.139 622.639 258.139C622.306 258.139 621.787 258.158 621.084 258.195C620.418 258.232 619.918 258.25 619.585 258.25C620.547 257.843 621.121 257.51 621.306 257.251C621.454 257.103 621.528 256.732 621.528 256.14L621.639 237.591L618.751 237.702ZM648.431 261.749L642.6 262.027V259.583L638.379 261.805L633.714 258.417L632.604 241.589L639.379 237.757L642.545 242.2L642.656 230.815C642.804 230.001 642.396 229.001 641.434 227.816H647.876C647.136 228.779 646.765 229.686 646.765 230.538L647.265 259.805C647.45 260.583 647.839 261.231 648.431 261.749ZM638.157 242.367L637.713 251.308C637.565 254.455 637.935 256.899 638.824 258.639L642.6 256.862L642.656 244.366L639.823 240.923L638.157 242.367ZM662.735 260.583C662.439 260.805 661.254 261.712 659.18 263.304C656.848 265.081 655.311 265.97 654.571 265.97C654.46 265.97 654.386 265.933 654.349 265.859L650.628 261.305C650.146 260.231 649.906 259.491 649.906 259.084C649.906 258.639 650.183 258.25 650.739 257.917L651.85 257.251L654.293 256.695C653.997 256.992 653.849 257.362 653.849 257.806C653.849 257.954 653.886 258.287 653.96 258.806C654.071 259.287 654.108 259.62 654.071 259.805C654.182 260.25 654.682 260.824 655.57 261.527C656.459 262.194 657.107 262.471 657.514 262.36C657.514 261.953 657.866 261.305 658.569 260.416L658.292 260.472C658.44 260.361 658.514 260.194 658.514 259.972C658.514 259.491 657.07 257.603 654.182 254.307C651.331 250.975 649.906 249.161 649.906 248.865C649.906 248.68 649.98 248.55 650.128 248.476L650.628 247.921C650.924 247.699 652.109 246.791 654.182 245.199C656.515 243.422 658.051 242.534 658.792 242.534C658.903 242.534 658.977 242.571 659.014 242.645L662.735 247.199C663.216 248.272 663.457 249.013 663.457 249.42C663.457 249.864 663.179 250.253 662.624 250.586L658.625 251.475V251.253C658.921 250.957 659.069 250.568 659.069 250.087C659.069 249.901 659.014 249.55 658.903 249.031C658.829 248.513 658.81 248.143 658.847 247.921C658.736 247.476 658.384 247.069 657.792 246.699C657.237 246.292 656.718 246.088 656.237 246.088C655.83 246.088 655.422 246.329 655.015 246.81C654.608 247.291 654.404 247.754 654.404 248.198C654.404 248.458 654.478 248.68 654.626 248.865C655.774 250.346 657.718 252.567 660.458 255.529C662.383 257.603 663.346 258.972 663.346 259.639C663.346 259.898 663.253 260.102 663.068 260.25L662.735 260.305V260.583Z" fill="url(#paint5_linear_177_101)"/>
<defs>
<linearGradient id="paint0_linear_177_101" x1="294.512" y1="0.695129" x2="294.512" y2="126.915" gradientUnits="userSpaceOnUse">
<stop offset="0.2" stop-color="#FFCE23"/>
<stop offset="0.47" stop-color="white"/>
<stop offset="0.755" stop-color="#FFCE23"/>
</linearGradient>
<linearGradient id="paint1_linear_177_101" x1="169.134" y1="163.939" x2="169.134" y2="306.988" gradientUnits="userSpaceOnUse">
<stop offset="0.2" stop-color="#FFCE23"/>
<stop offset="0.47" stop-color="white"/>
<stop offset="0.755" stop-color="#FFCE23"/>
</linearGradient>
<linearGradient id="paint2_linear_177_101" x1="71.5245" y1="130.281" x2="71.5245" y2="273.329" gradientUnits="userSpaceOnUse">
<stop offset="0.2" stop-color="#FFCE23"/>
<stop offset="0.47" stop-color="white"/>
<stop offset="0.755" stop-color="#FFCE23"/>
</linearGradient>
<linearGradient id="paint3_linear_177_101" x1="266.744" y1="130.281" x2="266.744" y2="273.329" gradientUnits="userSpaceOnUse">
<stop offset="0.2" stop-color="#FFCE23"/>
<stop offset="0.47" stop-color="white"/>
<stop offset="0.755" stop-color="#FFCE23"/>
</linearGradient>
<linearGradient id="paint4_linear_177_101" x1="530.964" y1="124.39" x2="530.964" y2="225.366" gradientUnits="userSpaceOnUse">
<stop offset="0.2" stop-color="#FFCE23"/>
<stop offset="0.47" stop-color="white"/>
<stop offset="0.755" stop-color="#FFCE23"/>
</linearGradient>
<linearGradient id="paint5_linear_177_101" x1="517.921" y1="224.524" x2="517.921" y2="280.061" gradientUnits="userSpaceOnUse">
<stop offset="0.2" stop-color="#FFCE23"/>
<stop offset="0.47" stop-color="white"/>
<stop offset="0.755" stop-color="#FFCE23"/>
</linearGradient>
</defs>
</svg>
